<svg xmlns="http://www.w3.org/2000/svg" viewBox="0 0 64 64" width="400" height="400">
  <defs>
    <linearGradient id="g1" x1="0" x2="1" y1="0" y2="1">
      <stop offset="0" stop-color="#fb923c"/>
      <stop offset="1" stop-color="#f97316"/>
    </linearGradient>
  </defs>
  <rect fill="none" width="64" height="64" rx="8"/>
  <g transform="translate(8,10)">
    <ellipse cx="24" cy="6" rx="18" ry="8" fill="url(#g1)" />
    <ellipse cx="14" cy="8" rx="3" ry="1.6" fill="#fff" opacity="0.6"/>
    <ellipse cx="30" cy="6" rx="2" ry="1.2" fill="#fff" opacity="0.6"/>
    <path d="M16 12c0 6-4 10-4 14 0 6 20 6 20 0 0-4-4-8-4-14" fill="#fef3c7"/>
    <path d="M18 8c0 0 8-2 14 3 6 5 2 14-10 14-12 0-14-10-10-17 2-4 6-4 6-4z" fill="#fff" opacity="0.06"/>
  </g>
</svg>
